<?xml version="1.0" encoding="utf-8"?>
<!-- Generator: Adobe Illustrator 24.1.2, SVG Export Plug-In . SVG Version: 6.00 Build 0)  -->
<svg version="1.1" id="Layer_1" xmlns="http://www.w3.org/2000/svg" xmlns:xlink="http://www.w3.org/1999/xlink" x="0px" y="0px"
	 viewBox="0 0 1920 1080" style="enable-background:new 0 0 1920 1080;" xml:space="preserve">
<style type="text/css">
	.st0{fill:#BB5044;}
</style>
<g>
	<path class="st0" d="M936.01,506.4c3.83,0,6.67-1.52,8.54-4.56c0.98-1.52,1.54-3.26,1.69-5.23c0.15-1.81-0.2-3.61-1.03-5.37
		c-1.77-3.78-4.86-5.67-9.27-5.67c-3.24,0-5.73,1.09-7.47,3.28c-1.74,2.18-2.61,4.6-2.61,7.25v0.07c0,2.36,0.87,4.65,2.61,6.88
		C930.2,505.29,932.72,506.4,936.01,506.4z"/>
	<path class="st0" d="M1026.57,572.79c-2.8,0-4.97,0.74-6.51,2.21c-1.54,1.47-2.42,2.9-2.61,4.27h18.25
		c-0.2-1.37-1.07-2.8-2.61-4.27C1031.54,573.53,1029.37,572.79,1026.57,572.79z"/>
	<path class="st0" d="M742.44,506.4c3.83,0,6.67-1.52,8.54-4.56c0.98-1.52,1.55-3.26,1.69-5.23c0.15-1.81-0.2-3.61-1.03-5.37
		c-1.77-3.78-4.86-5.67-9.27-5.67c-3.24,0-5.73,1.09-7.47,3.28c-1.74,2.18-2.61,4.6-2.61,7.25v0.07c0,2.36,0.87,4.65,2.61,6.88
		C736.64,505.29,739.15,506.4,742.44,506.4z"/>
	<path class="st0" d="M1095.98,573.97c-2.7,0-5,0.98-6.92,2.94c-1.91,1.96-2.87,4.42-2.87,7.36v0.07c0,2.9,0.96,5.33,2.87,7.29
		c1.91,1.96,4.22,2.94,6.92,2.94c2.7,0,5-0.98,6.92-2.94c1.91-1.96,2.87-4.42,2.87-7.36s-0.96-5.4-2.87-7.36
		C1100.98,574.95,1098.68,573.97,1095.98,573.97z"/>
	<path class="st0" d="M1061.09,486.68c-1.54-1.47-3.72-2.21-6.51-2.21c-2.8,0-4.97,0.74-6.51,2.21c-1.54,1.47-2.42,2.9-2.61,4.27
		h18.25C1063.51,489.57,1062.64,488.15,1061.09,486.68z"/>
	<path class="st0" d="M814.9,573.89c-3.09,0-5.56,1.04-7.4,3.13c-1.84,2.09-2.76,4.48-2.76,7.18c0,2.94,0.92,5.43,2.76,7.47
		c1.84,2.04,4.23,3.05,7.18,3.05c2.99,0,5.45-1.04,7.36-3.13c1.91-2.08,2.87-4.53,2.87-7.32v-0.07c0-2.75-0.95-5.15-2.83-7.21
		C820.18,574.92,817.79,573.89,814.9,573.89z"/>
	<path class="st0" d="M887.17,562.49h-6.04v30.03h5.96c2.5,0,4.65-0.4,6.44-1.21c1.79-0.81,3.16-1.94,4.12-3.38
		c0.96-1.45,1.66-3.02,2.1-4.71c0.44-1.69,0.66-3.57,0.66-5.63c0-3.97-0.88-7.33-2.65-10.08
		C895.56,564.15,892.03,562.49,887.17,562.49z"/>
	<path class="st0" d="M940.61,572.79c-2.8,0-4.97,0.74-6.51,2.21c-1.55,1.47-2.42,2.9-2.61,4.27h18.25c-0.2-1.37-1.07-2.8-2.61-4.27
		C945.57,573.53,943.4,572.79,940.61,572.79z"/>
	<path class="st0" d="M1146.83,573.89c-2.94,0-5.4,1.03-7.36,3.09c-1.91,2.01-2.87,4.49-2.87,7.43c0,2.9,0.98,5.32,2.94,7.29
		c2.01,2.01,4.44,3.02,7.29,3.02c3.04,0,5.51-1.04,7.4-3.13c1.89-2.08,2.83-4.5,2.83-7.25v-0.07c0-2.65-0.92-5.04-2.76-7.18
		C1152.46,574.96,1149.97,573.89,1146.83,573.89z"/>
	<path class="st0" d="M-46.5-29.5v1139h2013v-1139H-46.5z M1129.35,475.56h11.41v4.34c0.54-0.74,1-1.34,1.4-1.8
		c0.39-0.47,1.04-1.05,1.95-1.77c0.91-0.71,2.02-1.25,3.35-1.62c1.33-0.37,2.85-0.55,4.56-0.55c2.6,0,4.88,0.42,6.84,1.25
		c1.96,0.83,3.46,1.84,4.49,3.02s1.85,2.59,2.46,4.23c0.61,1.64,0.99,3.08,1.14,4.31c0.15,1.23,0.22,2.53,0.22,3.9v25.54h-12.22
		v-22.3c0-2.65-0.44-4.72-1.33-6.22c-0.88-1.5-2.58-2.24-5.08-2.24c-2.75,0-4.6,0.79-5.56,2.36c-0.96,1.57-1.44,3.63-1.44,6.18
		v22.23h-12.22V475.56z M1014.24,461.95h12.22v54.46h-12.22V461.95z M971.59,480.49c4.15-4.22,9.26-6.33,15.35-6.33
		c5.4,0,10.09,1.6,14.09,4.78c4,3.19,6.51,7.31,7.54,12.37h-12.36c-1.82-3.83-4.76-5.74-8.83-5.74c-2.8-0.15-5.15,0.81-7.07,2.87
		c-1.77,2.01-2.65,4.51-2.65,7.51c0,2.99,0.89,5.47,2.69,7.43c1.79,1.96,4.13,2.94,7.03,2.94c3.97,0,6.92-1.81,8.83-5.45h12.44
		c-1.13,4.81-3.64,8.82-7.54,12.03c-3.9,3.21-8.53,4.82-13.88,4.82c-6.13,0-11.31-2.12-15.53-6.37c-4.22-4.24-6.33-9.41-6.33-15.49
		C965.37,489.84,967.45,484.71,971.59,480.49z M919.67,480.2c4.02-4.02,8.86-6.04,14.5-6.04c3.04,0,5.57,0.58,7.58,1.73
		c2.01,1.15,3.51,2.49,4.49,4.01v-4.34h12.22v40.85h-12.22V512c-1.03,1.91-2.66,3.36-4.89,4.34c-2.23,0.98-4.63,1.47-7.18,1.47
		c-6.23,0-11.21-2.12-14.94-6.37c-3.73-4.24-5.59-9.41-5.59-15.49C913.63,489.47,915.64,484.22,919.67,480.2z M796.02,475.56h6.04
		v-13.62h12.22v13.62h5.89v9.27h-5.89v31.57h-12.22v-31.57h-6.04V475.56z M726.1,480.2c4.02-4.02,8.86-6.04,14.5-6.04
		c3.04,0,5.57,0.58,7.58,1.73c2.01,1.15,3.51,2.49,4.49,4.01v-4.34h12.22v40.85h-12.22V512c-1.03,1.91-2.66,3.36-4.89,4.34
		c-2.23,0.98-4.63,1.47-7.18,1.47c-6.23,0-11.21-2.12-14.94-6.37c-3.73-4.24-5.59-9.41-5.59-15.49
		C720.06,489.47,722.08,484.22,726.1,480.2z M655.15,516.41v-54.46h18.62L684,497.05l9.94-35.11h18.69v54.46h-12.81l0.44-40.77
		l-11.78,40.77h-9.2l-11.78-40.77l0.44,40.77H655.15z M718.26,604.73l-8.32-35.25l-8.17,35.25h-12.59l-14.06-54.46h14.13l7.43,35.4
		l8.02-35.4h10.67l8.02,35.55l7.43-35.55h14.06l-14.43,54.46H718.26z M785.83,588.54h-30.4c0.25,2.16,1.26,3.9,3.05,5.23
		c1.79,1.33,3.91,1.99,6.37,1.99c3.19,0,5.67-1.28,7.43-3.83h12.51c-1.96,4.51-4.74,8-8.32,10.45c-3.44,2.45-7.31,3.68-11.63,3.68
		c-5.89,0-10.97-2.1-15.24-6.29s-6.4-9.31-6.4-15.35c0-5.84,2.05-10.95,6.15-15.35c4.1-4.39,9.19-6.59,15.27-6.59
		c6.23,0,11.38,2.16,15.46,6.48C784.89,574.11,786.81,580.64,785.83,588.54z M788.44,516.41h-12.22v-31.57h-6.04v-9.27h6.04v-13.62
		h12.22v13.62h5.89v9.27h-5.89V516.41z M831.02,600.32c-4.07,3.88-8.91,5.81-14.5,5.81c-2.7,0-5.12-0.56-7.25-1.69
		c-2.13-1.13-3.67-2.48-4.6-4.05v4.34h-11.7v-54.46h12.22v13.76v3.09c2.89-3.09,6.84-4.64,11.85-4.64c2.26,0,4.51,0.42,6.77,1.25
		c2.26,0.83,4.4,2.06,6.44,3.68c2.04,1.62,3.69,3.88,4.97,6.77c1.28,2.9,1.91,6.18,1.91,9.86
		C837.13,591.02,835.09,596.44,831.02,600.32z M848.72,516.41v-54.46h18.62l10.23,35.11l9.94-35.11h18.69v54.46h-12.81l0.44-40.77
		l-11.78,40.77h-9.2l-11.78-40.77l0.44,40.77H848.72z M912.82,587.95c-1.01,3.19-2.58,6.07-4.71,8.65s-5.05,4.58-8.76,6
		c-3.71,1.42-8.06,2.13-13.06,2.13h-19.06v-54.46h18.03c1.42,0,2.58,0.03,3.46,0.07c0.88,0.05,2.17,0.15,3.86,0.29
		s3.18,0.44,4.45,0.88c1.28,0.44,2.67,1.02,4.19,1.73c1.52,0.71,2.97,1.68,4.34,2.91c1.37,1.23,2.62,2.65,3.75,4.27
		c3.34,4.56,5,10.21,5,16.93C914.33,581.23,913.83,584.76,912.82,587.95z M961.73,588.54h-30.4c0.25,2.16,1.26,3.9,3.05,5.23
		c1.79,1.33,3.91,1.99,6.37,1.99c3.19,0,5.67-1.28,7.43-3.83h12.51c-1.96,4.51-4.74,8-8.32,10.45c-3.44,2.45-7.31,3.68-11.63,3.68
		c-5.89,0-10.97-2.1-15.24-6.29s-6.4-9.31-6.4-15.35c0-5.84,2.05-10.95,6.15-15.35c4.1-4.39,9.19-6.59,15.27-6.59
		c6.23,0,11.38,2.16,15.46,6.48C960.8,574.11,962.71,580.64,961.73,588.54z M989.48,604.73h-11.7l-14.65-40.85h12.66l7.88,25.47
		l7.88-25.47h12.66L989.48,604.73z M1047.7,588.54h-30.4c0.25,2.16,1.26,3.9,3.05,5.23c1.79,1.33,3.91,1.99,6.37,1.99
		c3.19,0,5.67-1.28,7.43-3.83h12.51c-1.96,4.51-4.74,8-8.32,10.45c-3.44,2.45-7.31,3.68-11.63,3.68c-5.89,0-10.97-2.1-15.24-6.29
		c-4.27-4.2-6.4-9.31-6.4-15.35c0-5.84,2.05-10.95,6.14-15.35c4.1-4.39,9.19-6.59,15.27-6.59c6.23,0,11.38,2.16,15.46,6.48
		C1046.76,574.11,1048.68,580.64,1047.7,588.54z M1067.05,604.73h-12.22v-54.46h12.22V604.73z M1066.35,514.06
		c-3.44,2.45-7.31,3.68-11.63,3.68c-5.89,0-10.97-2.1-15.24-6.29c-4.27-4.2-6.4-9.31-6.4-15.35c0-5.84,2.05-10.95,6.14-15.35
		c4.1-4.39,9.19-6.59,15.27-6.59c6.23,0,11.38,2.16,15.46,6.48c4.81,5.15,6.72,11.68,5.74,19.58h-30.4c0.25,2.16,1.26,3.9,3.05,5.23
		c1.79,1.32,3.91,1.99,6.37,1.99c3.19,0,5.67-1.28,7.43-3.83h12.51C1072.71,508.12,1069.93,511.6,1066.35,514.06z M1116.59,591.93
		c-0.93,2.5-2.27,4.82-4.01,6.96c-1.74,2.13-4.05,3.85-6.92,5.15s-6.1,1.95-9.68,1.95c-3.58,0-6.81-0.65-9.68-1.95
		c-2.87-1.3-5.18-3.02-6.92-5.15c-1.74-2.13-3.08-4.45-4.01-6.96c-0.93-2.5-1.4-5.05-1.4-7.65v-0.07c0-2.55,0.47-5.08,1.4-7.58
		c0.93-2.5,2.27-4.82,4.01-6.96c1.74-2.13,4.05-3.85,6.92-5.15c2.87-1.3,6.1-1.95,9.68-1.95c3.58,0,6.81,0.65,9.68,1.95
		c2.87,1.3,5.18,3.02,6.92,5.15c1.74,2.13,3.08,4.45,4.01,6.96c0.93,2.5,1.4,5.05,1.4,7.65
		C1117.98,586.87,1117.52,589.42,1116.59,591.93z M1120.67,516.41h-12.22v-22.3c0-2.65-0.44-4.72-1.33-6.22
		c-0.88-1.5-2.58-2.24-5.08-2.24c-2.75,0-4.6,0.79-5.56,2.36c-0.96,1.57-1.44,3.63-1.44,6.18v22.23h-12.22v-40.85h11.41v4.34
		c0.54-0.74,1-1.34,1.4-1.8c0.39-0.47,1.04-1.05,1.95-1.77c0.91-0.71,2.02-1.25,3.35-1.62c1.33-0.37,2.85-0.55,4.56-0.55
		c2.6,0,4.88,0.42,6.84,1.25c1.96,0.83,3.46,1.84,4.49,3.02s1.85,2.59,2.46,4.23c0.61,1.64,0.99,3.08,1.14,4.31
		c0.15,1.23,0.22,2.53,0.22,3.9V516.41z M1163.65,599.91c-3.75,4.15-8.5,6.22-14.24,6.22c-4.96,0-9.05-1.69-12.29-5.08v3.68v13.62
		h-12.22v-54.46h11.48v4.49c3.39-3.93,7.7-5.89,12.95-5.89c3.43,0,6.49,0.7,9.16,2.1c2.67,1.4,4.77,3.23,6.29,5.48
		c1.52,2.26,2.65,4.64,3.39,7.14c0.74,2.5,1.1,5,1.1,7.51C1169.28,590.7,1167.41,595.77,1163.65,599.91z M1216.61,588.54h-30.4
		c0.25,2.16,1.26,3.9,3.05,5.23c1.79,1.33,3.91,1.99,6.37,1.99c3.19,0,5.67-1.28,7.43-3.83h12.51c-1.96,4.51-4.74,8-8.32,10.45
		c-3.44,2.45-7.31,3.68-11.63,3.68c-5.89,0-10.97-2.1-15.24-6.29s-6.4-9.31-6.4-15.35c0-5.84,2.05-10.95,6.15-15.35
		c4.1-4.39,9.19-6.59,15.27-6.59c6.23,0,11.38,2.16,15.46,6.48C1215.67,574.11,1217.59,580.64,1216.61,588.54z M1218.78,516.41
		h-12.22V512c-1.03,1.91-2.66,3.36-4.89,4.34c-2.23,0.98-4.63,1.47-7.18,1.47c-6.23,0-11.21-2.12-14.94-6.37
		c-3.73-4.24-5.59-9.41-5.59-15.49c0-6.48,2.01-11.73,6.04-15.75c4.02-4.02,8.86-6.04,14.5-6.04c3.04,0,5.57,0.58,7.58,1.73
		c2.01,1.15,3.51,2.49,4.49,4.01v-4.34h12.22V516.41z M1245.53,574.78h-0.44c-3.19,0-5.52,0.63-6.99,1.88
		c-1.47,1.25-2.21,3.3-2.21,6.15v21.93h-12.22v-40.85h11.48v4.56c0.39-0.78,0.78-1.42,1.18-1.91c0.39-0.49,0.98-1.1,1.77-1.84
		c0.78-0.74,1.8-1.29,3.05-1.66c1.25-0.37,2.71-0.55,4.38-0.55V574.78z M1265.51,516.41h-12.22v-22.3c0-2.65-0.44-4.72-1.33-6.22
		c-0.88-1.5-2.58-2.24-5.08-2.24c-2.75,0-4.6,0.79-5.56,2.36c-0.96,1.57-1.44,3.63-1.44,6.18v22.23h-12.22v-40.85h11.41v4.34
		c0.54-0.74,1-1.34,1.4-1.8c0.39-0.47,1.04-1.05,1.95-1.77c0.91-0.71,2.02-1.25,3.35-1.62c1.33-0.37,2.85-0.55,4.56-0.55
		c2.6,0,4.88,0.42,6.84,1.25c1.96,0.83,3.46,1.84,4.49,3.02s1.85,2.59,2.46,4.23c0.61,1.64,0.99,3.08,1.14,4.31
		c0.15,1.23,0.22,2.53,0.22,3.9V516.41z"/>
	<path class="st0" d="M1195.48,572.79c-2.8,0-4.97,0.74-6.51,2.21c-1.54,1.47-2.42,2.9-2.61,4.27h18.25
		c-0.2-1.37-1.07-2.8-2.61-4.27C1200.45,573.53,1198.28,572.79,1195.48,572.79z"/>
	<path class="st0" d="M1196.26,485.57c-3.24,0-5.73,1.09-7.47,3.28c-1.74,2.18-2.61,4.6-2.61,7.25v0.07c0,2.36,0.87,4.65,2.61,6.88
		c1.74,2.23,4.26,3.35,7.54,3.35c3.83,0,6.67-1.52,8.54-4.56c0.98-1.52,1.54-3.26,1.69-5.23c0.15-1.81-0.2-3.61-1.03-5.37
		C1203.76,487.46,1200.67,485.57,1196.26,485.57z"/>
	<path class="st0" d="M764.7,572.79c-2.8,0-4.97,0.74-6.51,2.21c-1.55,1.47-2.42,2.9-2.61,4.27h18.25c-0.2-1.37-1.07-2.8-2.61-4.27
		C769.67,573.53,767.5,572.79,764.7,572.79z"/>
</g>
</svg>
