<?xml version="1.0" encoding="utf-8"?>
<!-- Generator: Adobe Illustrator 24.1.2, SVG Export Plug-In . SVG Version: 6.00 Build 0)  -->
<svg version="1.1" id="Layer_1" xmlns="http://www.w3.org/2000/svg" xmlns:xlink="http://www.w3.org/1999/xlink" x="0px" y="0px"
	 viewBox="0 0 1920 1080" style="enable-background:new 0 0 1920 1080;" xml:space="preserve">
<style type="text/css">
	.st0{fill:#FF341E;}
</style>
<g>
	<path class="st0" d="M777.76,568.79c-2.63,0-4.67,0.69-6.13,2.08c-1.45,1.38-2.27,2.72-2.46,4.02h17.17
		c-0.18-1.29-1-2.63-2.46-4.02C782.43,569.48,780.39,568.79,777.76,568.79z"/>
	<path class="st0" d="M1137.28,569.83c-2.77,0-5.08,0.97-6.92,2.91c-1.8,1.89-2.7,4.22-2.7,6.99c0,2.72,0.92,5.01,2.77,6.86
		c1.89,1.89,4.18,2.84,6.86,2.84c2.86,0,5.18-0.98,6.96-2.94c1.78-1.96,2.67-4.23,2.67-6.82v-0.07c0-2.49-0.87-4.74-2.6-6.75
		C1142.57,570.83,1140.23,569.83,1137.28,569.83z"/>
	<path class="st0" d="M756.81,506.33c3.6,0,6.28-1.43,8.03-4.29c0.92-1.43,1.45-3.07,1.59-4.92c0.14-1.71-0.18-3.39-0.97-5.06
		c-1.66-3.55-4.57-5.33-8.72-5.33c-3.05,0-5.39,1.03-7.03,3.08c-1.64,2.05-2.46,4.33-2.46,6.82v0.07c0,2.22,0.82,4.37,2.46,6.47
		C751.35,505.28,753.72,506.33,756.81,506.33z"/>
	<path class="st0" d="M1089.43,569.9c-2.54,0-4.71,0.92-6.51,2.77c-1.8,1.85-2.7,4.15-2.7,6.92v0.07c0,2.72,0.9,5.01,2.7,6.86
		c1.8,1.85,3.97,2.77,6.51,2.77c2.54,0,4.71-0.92,6.51-2.77c1.8-1.85,2.7-4.16,2.7-6.92c0-2.77-0.9-5.08-2.7-6.92
		C1094.14,570.82,1091.97,569.9,1089.43,569.9z"/>
	<path class="st0" d="M1024.13,568.79c-2.63,0-4.67,0.69-6.13,2.08c-1.45,1.38-2.27,2.72-2.46,4.02h17.17
		c-0.19-1.29-1-2.63-2.46-4.02C1028.81,569.48,1026.77,568.79,1024.13,568.79z"/>
	<path class="st0" d="M1056.61,487.77c-1.46-1.39-3.5-2.08-6.13-2.08c-2.63,0-4.67,0.69-6.13,2.08c-1.45,1.39-2.27,2.72-2.46,4.02
		h17.17C1058.88,490.5,1058.06,489.16,1056.61,487.77z"/>
	<path class="st0" d="M1183.05,568.79c-2.63,0-4.67,0.69-6.13,2.08c-1.45,1.38-2.27,2.72-2.46,4.02h17.17
		c-0.19-1.29-1-2.63-2.46-4.02C1187.72,569.48,1185.68,568.79,1183.05,568.79z"/>
	<path class="st0" d="M938.93,506.33c3.6,0,6.28-1.43,8.03-4.29c0.92-1.43,1.45-3.07,1.59-4.92c0.14-1.71-0.18-3.39-0.97-5.06
		c-1.66-3.55-4.57-5.33-8.72-5.33c-3.05,0-5.39,1.03-7.03,3.08c-1.64,2.05-2.46,4.33-2.46,6.82v0.07c0,2.22,0.82,4.37,2.46,6.47
		C933.47,505.28,935.83,506.33,938.93,506.33z"/>
	<path class="st0" d="M824.98,569.83c-2.91,0-5.23,0.98-6.96,2.94c-1.73,1.96-2.6,4.21-2.6,6.75c0,2.77,0.87,5.11,2.6,7.03
		c1.73,1.92,3.98,2.87,6.75,2.87c2.82,0,5.12-0.98,6.92-2.94c1.8-1.96,2.7-4.26,2.7-6.89v-0.07c0-2.58-0.89-4.85-2.67-6.79
		C829.96,570.8,827.71,569.83,824.98,569.83z"/>
	<path class="st0" d="M892.98,559.1h-5.68v28.25h5.61c2.35,0,4.37-0.38,6.06-1.14c1.68-0.76,2.98-1.82,3.88-3.18
		s1.56-2.84,1.97-4.43c0.42-1.59,0.62-3.36,0.62-5.3c0-3.74-0.83-6.9-2.49-9.48C900.88,560.67,897.55,559.1,892.98,559.1z"/>
	<path class="st0" d="M-44.69-31.42v1139h2013v-1139H-44.69z M1120.83,477.32h10.73v4.09c0.51-0.69,0.95-1.26,1.32-1.7
		c0.37-0.44,0.98-0.99,1.83-1.66c0.85-0.67,1.91-1.18,3.15-1.52c1.25-0.35,2.68-0.52,4.3-0.52c2.45,0,4.59,0.39,6.44,1.18
		c1.84,0.78,3.25,1.73,4.22,2.84c0.97,1.11,1.74,2.44,2.32,3.98c0.58,1.55,0.93,2.9,1.07,4.05c0.14,1.15,0.21,2.38,0.21,3.67v24.03
		h-11.5v-20.98c0-2.49-0.42-4.44-1.25-5.85c-0.83-1.41-2.42-2.11-4.78-2.11c-2.58,0-4.33,0.74-5.23,2.22
		c-0.9,1.48-1.35,3.42-1.35,5.82v20.91h-11.49V477.32z M1012.53,464.51h11.5v51.24h-11.5V464.51z M972.41,481.96
		c3.9-3.97,8.71-5.95,14.44-5.95c5.08,0,9.5,1.5,13.26,4.5s6.13,6.88,7.1,11.63h-11.63c-1.71-3.6-4.48-5.4-8.31-5.4
		c-2.63-0.14-4.85,0.76-6.65,2.7c-1.66,1.89-2.49,4.25-2.49,7.06c0,2.82,0.84,5.15,2.53,6.99c1.69,1.85,3.89,2.77,6.61,2.77
		c3.74,0,6.51-1.71,8.31-5.12h11.7c-1.06,4.52-3.43,8.3-7.1,11.32c-3.67,3.02-8.02,4.54-13.05,4.54c-5.77,0-10.64-2-14.61-5.99
		c-3.97-3.99-5.95-8.85-5.95-14.58C966.56,490.75,968.5,485.93,972.41,481.96z M923.55,481.68c3.78-3.79,8.33-5.68,13.64-5.68
		c2.86,0,5.24,0.54,7.13,1.63c1.89,1.09,3.3,2.34,4.22,3.77v-4.09h11.5v38.43h-11.5v-4.15c-0.97,1.8-2.5,3.16-4.6,4.09
		c-2.1,0.92-4.35,1.39-6.75,1.39c-5.86,0-10.55-2-14.06-5.99c-3.51-3.99-5.26-8.85-5.26-14.58
		C917.88,490.4,919.77,485.46,923.55,481.68z M807.22,477.32h5.68v-12.81h11.5v12.81h5.54v8.72h-5.54v29.71h-11.5v-29.71h-5.68
		V477.32z M741.44,481.68c3.78-3.79,8.33-5.68,13.64-5.68c2.86,0,5.24,0.54,7.13,1.63c1.89,1.09,3.3,2.34,4.22,3.77v-4.09h11.5
		v38.43h-11.5v-4.15c-0.97,1.8-2.5,3.16-4.6,4.09c-2.1,0.92-4.35,1.39-6.75,1.39c-5.86,0-10.55-2-14.06-5.99
		c-3.51-3.99-5.26-8.85-5.26-14.58C735.76,490.4,737.66,485.46,741.44,481.68z M674.69,515.75v-51.24h17.52l9.62,33.03l9.35-33.03
		h17.59v51.24h-12.05l0.42-38.36l-11.08,38.36h-8.66l-11.08-38.36l0.42,38.36H674.69z M734.07,598.84l-7.82-33.17l-7.69,33.17
		h-11.84l-13.23-51.24h13.3l6.99,33.31l7.55-33.31h10.04l7.55,33.45l6.99-33.45h13.23l-13.57,51.24H734.07z M797.63,583.61h-28.6
		c0.23,2.03,1.19,3.67,2.87,4.92c1.68,1.25,3.68,1.87,5.99,1.87c3,0,5.33-1.2,6.99-3.6h11.77c-1.85,4.25-4.46,7.53-7.82,9.83
		c-3.23,2.31-6.88,3.46-10.94,3.46c-5.54,0-10.32-1.97-14.33-5.92c-4.02-3.95-6.02-8.76-6.02-14.44c0-5.49,1.93-10.31,5.78-14.44
		c3.85-4.13,8.64-6.2,14.37-6.2c5.86,0,10.71,2.03,14.54,6.09C796.75,570.04,798.56,576.18,797.63,583.61z M800.09,515.75h-11.5
		v-29.71h-5.68v-8.72h5.68v-12.81h11.5v12.81h5.54v8.72h-5.54V515.75z M840.15,594.69c-3.83,3.65-8.38,5.47-13.64,5.47
		c-2.54,0-4.81-0.53-6.82-1.59c-2.01-1.06-3.45-2.33-4.33-3.81v4.09h-11.01V547.6h11.5v12.95v2.91c2.72-2.91,6.44-4.36,11.15-4.36
		c2.12,0,4.25,0.39,6.37,1.18c2.12,0.79,4.14,1.94,6.06,3.46c1.92,1.52,3.47,3.65,4.67,6.37c1.2,2.72,1.8,5.82,1.8,9.28
		C845.9,585.94,843.98,591.04,840.15,594.69z M856.8,515.75v-51.24h17.52l9.62,33.03l9.35-33.03h17.59v51.24h-12.05l0.42-38.36
		l-11.08,38.36h-8.66l-11.08-38.36l0.42,38.36H856.8z M917.11,583.05c-0.95,3-2.42,5.71-4.43,8.14c-2.01,2.42-4.75,4.3-8.24,5.64
		c-3.49,1.34-7.58,2.01-12.29,2.01h-17.93V547.6h16.97c1.34,0,2.42,0.02,3.25,0.07c0.83,0.05,2.04,0.14,3.63,0.28
		c1.59,0.14,2.99,0.42,4.19,0.83c1.2,0.42,2.52,0.96,3.95,1.63c1.43,0.67,2.79,1.58,4.09,2.73c1.29,1.15,2.47,2.49,3.53,4.02
		c3.14,4.29,4.71,9.6,4.71,15.93C918.53,576.73,918.06,580.05,917.11,583.05z M963.13,583.61h-28.6c0.23,2.03,1.19,3.67,2.87,4.92
		c1.68,1.25,3.68,1.87,5.99,1.87c3,0,5.33-1.2,6.99-3.6h11.77c-1.85,4.25-4.46,7.53-7.82,9.83c-3.23,2.31-6.88,3.46-10.94,3.46
		c-5.54,0-10.32-1.97-14.33-5.92c-4.02-3.95-6.02-8.76-6.02-14.44c0-5.49,1.93-10.31,5.78-14.44c3.85-4.13,8.64-6.2,14.37-6.2
		c5.86,0,10.71,2.03,14.54,6.09C962.25,570.04,964.05,576.18,963.13,583.61z M989.23,598.84h-11.01l-13.78-38.43h11.91l7.41,23.96
		l7.41-23.96h11.91L989.23,598.84z M1044.01,583.61h-28.6c0.23,2.03,1.19,3.67,2.87,4.92c1.69,1.25,3.68,1.87,5.99,1.87
		c3,0,5.33-1.2,6.99-3.6h11.77c-1.85,4.25-4.45,7.53-7.82,9.83c-3.23,2.31-6.88,3.46-10.94,3.46c-5.54,0-10.32-1.97-14.33-5.92
		c-4.02-3.95-6.02-8.76-6.02-14.44c0-5.49,1.93-10.31,5.78-14.44c3.85-4.13,8.64-6.2,14.37-6.2c5.86,0,10.71,2.03,14.54,6.09
		C1043.13,570.04,1044.93,576.18,1044.01,583.61z M1062.22,598.84h-11.5V547.6h11.5V598.84z M1061.56,513.53
		c-3.23,2.31-6.88,3.46-10.94,3.46c-5.54,0-10.32-1.97-14.33-5.92c-4.02-3.95-6.02-8.76-6.02-14.44c0-5.49,1.93-10.31,5.78-14.44
		c3.85-4.13,8.64-6.2,14.37-6.2c5.86,0,10.71,2.03,14.54,6.09c4.53,4.85,6.33,10.99,5.4,18.42h-28.6c0.23,2.03,1.19,3.67,2.87,4.92
		c1.69,1.25,3.68,1.87,5.99,1.87c3,0,5.33-1.2,6.99-3.6h11.77C1067.54,507.95,1064.93,511.22,1061.56,513.53z M1108.82,586.79
		c-0.88,2.35-2.14,4.54-3.77,6.54s-3.81,3.62-6.51,4.85c-2.7,1.22-5.74,1.83-9.1,1.83c-3.37,0-6.41-0.61-9.11-1.83
		c-2.7-1.22-4.87-2.84-6.51-4.85s-2.9-4.19-3.77-6.54c-0.88-2.35-1.31-4.75-1.31-7.2v-0.07c0-2.4,0.44-4.78,1.31-7.13
		c0.88-2.35,2.14-4.54,3.77-6.54s3.81-3.62,6.51-4.85s5.74-1.84,9.11-1.84c3.37,0,6.4,0.61,9.1,1.84c2.7,1.22,4.87,2.84,6.51,4.85
		s2.9,4.19,3.77,6.54c0.88,2.35,1.31,4.76,1.31,7.2C1110.13,582.04,1109.7,584.44,1108.82,586.79z M1112.66,515.75h-11.5v-20.98
		c0-2.49-0.42-4.44-1.25-5.85c-0.83-1.41-2.42-2.11-4.78-2.11c-2.58,0-4.33,0.74-5.23,2.22c-0.9,1.48-1.35,3.42-1.35,5.82v20.91
		h-11.5v-38.43h10.73v4.09c0.51-0.69,0.95-1.26,1.32-1.7c0.37-0.44,0.98-0.99,1.83-1.66c0.85-0.67,1.91-1.18,3.15-1.52
		c1.25-0.35,2.68-0.52,4.3-0.52c2.45,0,4.59,0.39,6.44,1.18c1.84,0.78,3.25,1.73,4.22,2.84c0.97,1.11,1.74,2.44,2.32,3.98
		c0.58,1.55,0.93,2.9,1.07,4.05c0.14,1.15,0.21,2.38,0.21,3.67V515.75z M1153.1,594.31c-3.53,3.9-8,5.85-13.4,5.85
		c-4.66,0-8.52-1.59-11.56-4.78v3.46v12.81h-11.5v-51.24h10.8v4.22c3.19-3.69,7.25-5.54,12.19-5.54c3.23,0,6.1,0.66,8.62,1.97
		c2.52,1.32,4.49,3.04,5.92,5.16c1.43,2.12,2.49,4.36,3.19,6.72c0.69,2.35,1.04,4.71,1.04,7.06
		C1158.4,585.64,1156.63,590.41,1153.1,594.31z M1202.92,583.61h-28.6c0.23,2.03,1.19,3.67,2.87,4.92c1.69,1.25,3.68,1.87,5.99,1.87
		c3,0,5.33-1.2,6.99-3.6h11.77c-1.85,4.25-4.45,7.53-7.82,9.83c-3.23,2.31-6.88,3.46-10.94,3.46c-5.54,0-10.32-1.97-14.33-5.92
		c-4.02-3.95-6.02-8.76-6.02-14.44c0-5.49,1.93-10.31,5.78-14.44c3.85-4.13,8.64-6.2,14.37-6.2c5.86,0,10.71,2.03,14.54,6.09
		C1202.04,570.04,1203.84,576.18,1202.92,583.61z M1204.96,515.75h-11.5v-4.15c-0.97,1.8-2.5,3.16-4.6,4.09
		c-2.1,0.92-4.35,1.39-6.75,1.39c-5.86,0-10.55-2-14.06-5.99c-3.51-3.99-5.26-8.85-5.26-14.58c0-6.09,1.89-11.03,5.68-14.82
		c3.79-3.79,8.33-5.68,13.64-5.68c2.86,0,5.24,0.54,7.13,1.63c1.89,1.09,3.3,2.34,4.22,3.77v-4.09h11.5V515.75z M1230.14,570.66
		h-0.42c-3,0-5.19,0.59-6.58,1.76c-1.38,1.18-2.08,3.11-2.08,5.78v20.64h-11.5v-38.43h10.8v4.29c0.37-0.74,0.74-1.34,1.11-1.8
		c0.37-0.46,0.92-1.04,1.66-1.73c0.74-0.69,1.7-1.21,2.87-1.56c1.18-0.35,2.55-0.52,4.12-0.52V570.66z M1248.93,515.75h-11.5v-20.98
		c0-2.49-0.42-4.44-1.25-5.85c-0.83-1.41-2.42-2.11-4.78-2.11c-2.58,0-4.33,0.74-5.23,2.22c-0.9,1.48-1.35,3.42-1.35,5.82v20.91
		h-11.5v-38.43h10.73v4.09c0.51-0.69,0.95-1.26,1.32-1.7c0.37-0.44,0.98-0.99,1.83-1.66c0.85-0.67,1.91-1.18,3.15-1.52
		c1.25-0.35,2.68-0.52,4.3-0.52c2.45,0,4.59,0.39,6.44,1.18c1.84,0.78,3.25,1.73,4.22,2.84c0.97,1.11,1.74,2.44,2.32,3.98
		c0.58,1.55,0.93,2.9,1.07,4.05c0.14,1.15,0.21,2.38,0.21,3.67V515.75z"/>
	<path class="st0" d="M943.25,568.79c-2.63,0-4.67,0.69-6.13,2.08c-1.45,1.38-2.27,2.72-2.46,4.02h17.17
		c-0.18-1.29-1-2.63-2.46-4.02C947.93,569.48,945.88,568.79,943.25,568.79z"/>
	<path class="st0" d="M1183.77,486.73c-3.05,0-5.39,1.03-7.03,3.08c-1.64,2.05-2.46,4.33-2.46,6.82v0.07c0,2.22,0.82,4.37,2.46,6.47
		c1.64,2.1,4,3.15,7.1,3.15c3.6,0,6.28-1.43,8.03-4.29c0.92-1.43,1.45-3.07,1.59-4.92c0.14-1.71-0.19-3.39-0.97-5.06
		C1190.84,488.51,1187.93,486.73,1183.77,486.73z"/>
</g>
</svg>
