<?xml version="1.0" encoding="utf-8"?>
<!-- Generator: Adobe Illustrator 24.1.2, SVG Export Plug-In . SVG Version: 6.00 Build 0)  -->
<svg version="1.1" id="Layer_1" xmlns="http://www.w3.org/2000/svg" xmlns:xlink="http://www.w3.org/1999/xlink" x="0px" y="0px"
	 viewBox="0 0 414 736" style="enable-background:new 0 0 414 736;" xml:space="preserve">
<style type="text/css">
	.st0{fill:#FF341E;}
</style>
<g>
	<path class="st0" d="M277.06,369.4c-1.39,0-2.57,0.5-3.55,1.51c-0.98,1.01-1.47,2.27-1.47,3.78v0.04c0,1.49,0.49,2.73,1.47,3.74
		c0.98,1.01,2.17,1.51,3.55,1.51c1.38,0,2.57-0.5,3.55-1.51c0.98-1.01,1.47-2.27,1.47-3.78c0-1.51-0.49-2.77-1.47-3.78
		C279.63,369.91,278.44,369.4,277.06,369.4z"/>
	<path class="st0" d="M197.3,368.8c-1.44,0-2.55,0.38-3.34,1.13c-0.79,0.76-1.24,1.49-1.34,2.19h9.37c-0.1-0.71-0.55-1.44-1.34-2.19
		C199.85,369.18,198.74,368.8,197.3,368.8z"/>
	<path class="st0" d="M169.87,363.51h-3.1v15.42h3.06c1.28,0,2.39-0.21,3.31-0.62c0.92-0.42,1.62-0.99,2.12-1.74
		s0.85-1.55,1.08-2.42s0.34-1.83,0.34-2.89c0-2.04-0.45-3.77-1.36-5.18C174.18,364.37,172.36,363.51,169.87,363.51z"/>
	<path class="st0" d="M259.15,324.59c-0.79-0.76-1.91-1.13-3.34-1.13c-1.44,0-2.55,0.38-3.34,1.13c-0.79,0.76-1.24,1.49-1.34,2.19
		h9.37C260.39,326.08,259.94,325.35,259.15,324.59z"/>
	<path class="st0" d="M194.94,334.72c1.96,0,3.43-0.78,4.38-2.34c0.5-0.78,0.79-1.67,0.87-2.68c0.08-0.93-0.1-1.85-0.53-2.76
		c-0.91-1.94-2.49-2.91-4.76-2.91c-1.66,0-2.94,0.56-3.83,1.68c-0.89,1.12-1.34,2.36-1.34,3.72v0.04c0,1.21,0.45,2.39,1.34,3.53
		C191.96,334.15,193.25,334.72,194.94,334.72z"/>
	<path class="st0" d="M95.58,334.72c1.96,0,3.43-0.78,4.38-2.34c0.5-0.78,0.79-1.67,0.87-2.68c0.08-0.93-0.1-1.85-0.53-2.76
		c-0.91-1.94-2.49-2.91-4.76-2.91c-1.66,0-2.94,0.56-3.83,1.68c-0.89,1.12-1.34,2.36-1.34,3.72v0.04c0,1.21,0.45,2.39,1.34,3.53
		C92.6,334.15,93.89,334.72,95.58,334.72z"/>
	<path class="st0" d="M107,368.8c-1.44,0-2.55,0.38-3.34,1.13s-1.24,1.49-1.34,2.19h9.37c-0.1-0.71-0.55-1.44-1.34-2.19
		S108.44,368.8,107,368.8z"/>
	<path class="st0" d="M132.77,369.37c-1.59,0-2.85,0.54-3.8,1.61c-0.94,1.07-1.42,2.3-1.42,3.68c0,1.51,0.47,2.79,1.42,3.83
		c0.94,1.04,2.17,1.57,3.68,1.57c1.54,0,2.8-0.53,3.78-1.61c0.98-1.07,1.47-2.32,1.47-3.76v-0.04c0-1.41-0.49-2.64-1.45-3.7
		C135.48,369.89,134.26,369.37,132.77,369.37z"/>
	<path class="st0" d="M241.43,368.8c-1.44,0-2.55,0.38-3.34,1.13c-0.79,0.76-1.24,1.49-1.34,2.19h9.37
		c-0.1-0.71-0.55-1.44-1.34-2.19C243.98,369.18,242.86,368.8,241.43,368.8z"/>
	<path class="st0" d="M303.16,369.37c-1.51,0-2.77,0.53-3.78,1.59c-0.98,1.03-1.47,2.3-1.47,3.82c0,1.49,0.5,2.73,1.51,3.74
		c1.03,1.03,2.28,1.55,3.74,1.55c1.56,0,2.83-0.53,3.8-1.61c0.97-1.07,1.46-2.31,1.46-3.72v-0.04c0-1.36-0.47-2.59-1.42-3.68
		S304.77,369.37,303.16,369.37z"/>
	<path class="st0" d="M328.13,368.8c-1.44,0-2.55,0.38-3.34,1.13c-0.79,0.76-1.24,1.49-1.34,2.19h9.37
		c-0.1-0.71-0.55-1.44-1.34-2.19C330.68,369.18,329.57,368.8,328.13,368.8z"/>
	<path class="st0" d="M-815.67-203.91v1139h2013v-1139H-815.67z M294.19,318.89h5.86v2.23c0.28-0.38,0.52-0.69,0.72-0.93
		c0.2-0.24,0.54-0.54,1-0.91c0.47-0.36,1.04-0.64,1.72-0.83c0.68-0.19,1.46-0.28,2.34-0.28c1.33,0,2.51,0.21,3.51,0.64
		c1.01,0.43,1.78,0.94,2.3,1.55s0.95,1.33,1.27,2.17c0.31,0.84,0.51,1.58,0.59,2.21c0.08,0.63,0.11,1.3,0.11,2v13.11h-6.27v-11.45
		c0-1.36-0.23-2.42-0.68-3.19c-0.45-0.77-1.32-1.15-2.61-1.15c-1.41,0-2.36,0.4-2.85,1.21c-0.49,0.81-0.74,1.86-0.74,3.17v11.41
		h-6.27V318.89z M235.1,311.9h6.27v27.96h-6.27V311.9z M213.21,321.42c2.13-2.17,4.75-3.25,7.88-3.25c2.77,0,5.18,0.82,7.24,2.46
		c2.05,1.64,3.34,3.75,3.87,6.35h-6.35c-0.93-1.96-2.44-2.95-4.53-2.95c-1.44-0.08-2.64,0.42-3.63,1.47
		c-0.91,1.03-1.36,2.32-1.36,3.85c0,1.54,0.46,2.81,1.38,3.82c0.92,1.01,2.12,1.51,3.61,1.51c2.04,0,3.55-0.93,4.53-2.8h6.38
		c-0.58,2.47-1.87,4.53-3.87,6.18c-2,1.65-4.38,2.47-7.12,2.47c-3.15,0-5.81-1.09-7.97-3.27c-2.17-2.18-3.25-4.83-3.25-7.95
		C210.01,326.22,211.08,323.59,213.21,321.42z M186.55,321.27c2.06-2.06,4.55-3.1,7.44-3.1c1.56,0,2.86,0.3,3.89,0.89
		c1.03,0.59,1.8,1.28,2.3,2.06v-2.23h6.27v20.97h-6.27v-2.27c-0.53,0.98-1.37,1.73-2.51,2.23c-1.15,0.5-2.37,0.76-3.68,0.76
		c-3.2,0-5.76-1.09-7.67-3.27c-1.91-2.18-2.87-4.83-2.87-7.95C183.45,326.03,184.49,323.34,186.55,321.27z M123.08,318.89h3.1v-6.99
		h6.27v6.99h3.02v4.76h-3.02v16.21h-6.27v-16.21h-3.1V318.89z M87.19,321.27c2.06-2.06,4.55-3.1,7.44-3.1c1.56,0,2.86,0.3,3.89,0.89
		s1.8,1.28,2.3,2.06v-2.23h6.27v20.97h-6.27v-2.27c-0.53,0.98-1.37,1.73-2.51,2.23c-1.15,0.5-2.37,0.76-3.68,0.76
		c-3.2,0-5.76-1.09-7.67-3.27c-1.91-2.18-2.87-4.83-2.87-7.95C84.09,326.03,85.12,323.34,87.19,321.27z M50.77,339.86V311.9h9.56
		l5.25,18.02l5.1-18.02h9.6v27.96H73.7l0.23-20.93l-6.04,20.93h-4.72l-6.04-20.93l0.23,20.93H50.77z M83.16,385.2l-4.27-18.1
		l-4.19,18.1h-6.46l-7.22-27.96h7.25l3.82,18.17l4.12-18.17h5.48l4.12,18.25l3.82-18.25h7.22l-7.4,27.96H83.16z M117.85,376.88
		h-15.6c0.13,1.11,0.65,2,1.57,2.68c0.92,0.68,2.01,1.02,3.27,1.02c1.64,0,2.91-0.65,3.82-1.96h6.42c-1.01,2.32-2.43,4.11-4.27,5.37
		c-1.76,1.26-3.75,1.89-5.97,1.89c-3.02,0-5.63-1.08-7.82-3.23c-2.19-2.15-3.29-4.78-3.29-7.88c0-3,1.05-5.62,3.15-7.88
		c2.1-2.25,4.72-3.38,7.84-3.38c3.2,0,5.84,1.11,7.93,3.32C117.37,369.48,118.35,372.83,117.85,376.88z M119.19,339.86h-6.27v-16.21
		h-3.1v-4.76h3.1v-6.99h6.27v6.99h3.02v4.76h-3.02V339.86z M141.04,382.93c-2.09,1.99-4.57,2.98-7.44,2.98
		c-1.39,0-2.63-0.29-3.72-0.87s-1.88-1.27-2.36-2.08v2.23h-6.01v-27.96h6.27v7.06v1.59c1.49-1.59,3.51-2.38,6.08-2.38
		c1.16,0,2.32,0.21,3.48,0.64c1.16,0.43,2.26,1.06,3.31,1.89c1.04,0.83,1.9,1.99,2.55,3.48c0.65,1.49,0.98,3.17,0.98,5.06
		C144.18,378.16,143.13,380.94,141.04,382.93z M150.13,339.86V311.9h9.56l5.25,18.02l5.1-18.02h9.6v27.96h-6.57l0.23-20.93
		l-6.04,20.93h-4.72l-6.04-20.93l0.23,20.93H150.13z M183.04,376.58c-0.52,1.64-1.32,3.12-2.42,4.44s-2.59,2.35-4.5,3.08
		c-1.9,0.73-4.14,1.1-6.71,1.1h-9.79v-27.96h9.26c0.73,0,1.32,0.01,1.78,0.04c0.45,0.03,1.11,0.08,1.98,0.15s1.63,0.23,2.29,0.45
		c0.65,0.23,1.37,0.52,2.15,0.89c0.78,0.37,1.52,0.86,2.23,1.49c0.7,0.63,1.35,1.36,1.93,2.19c1.71,2.34,2.57,5.24,2.57,8.69
		C183.81,373.13,183.55,374.94,183.04,376.58z M208.14,376.88h-15.6c0.13,1.11,0.65,2,1.57,2.68c0.92,0.68,2.01,1.02,3.27,1.02
		c1.64,0,2.91-0.65,3.82-1.96h6.42c-1.01,2.32-2.43,4.11-4.27,5.37c-1.76,1.26-3.75,1.89-5.97,1.89c-3.02,0-5.63-1.08-7.82-3.23
		c-2.19-2.15-3.29-4.78-3.29-7.88c0-3,1.05-5.62,3.15-7.88c2.1-2.25,4.72-3.38,7.84-3.38c3.2,0,5.84,1.11,7.93,3.32
		C207.66,369.48,208.65,372.83,208.14,376.88z M222.39,385.2h-6.01l-7.52-20.97h6.5l4.04,13.07l4.04-13.07h6.5L222.39,385.2z
		 M252.27,376.88h-15.6c0.13,1.11,0.65,2,1.57,2.68c0.92,0.68,2.01,1.02,3.27,1.02c1.64,0,2.91-0.65,3.82-1.96h6.42
		c-1.01,2.32-2.43,4.11-4.27,5.37c-1.76,1.26-3.75,1.89-5.97,1.89c-3.02,0-5.63-1.08-7.82-3.23c-2.19-2.15-3.29-4.78-3.29-7.88
		c0-3,1.05-5.62,3.15-7.88c2.1-2.25,4.72-3.38,7.84-3.38c3.2,0,5.84,1.11,7.93,3.32C251.79,369.48,252.78,372.83,252.27,376.88z
		 M262.21,385.2h-6.27v-27.96h6.27V385.2z M261.85,338.65c-1.76,1.26-3.75,1.89-5.97,1.89c-3.02,0-5.63-1.08-7.82-3.23
		c-2.19-2.15-3.29-4.78-3.29-7.88c0-3,1.05-5.62,3.15-7.88c2.1-2.25,4.72-3.38,7.84-3.38c3.2,0,5.84,1.11,7.93,3.32
		c2.47,2.65,3.45,6,2.95,10.05h-15.6c0.13,1.11,0.65,2,1.57,2.68c0.92,0.68,2.01,1.02,3.27,1.02c1.64,0,2.91-0.65,3.82-1.96h6.42
		C265.11,335.6,263.69,337.39,261.85,338.65z M287.63,378.62c-0.48,1.29-1.17,2.47-2.06,3.57c-0.89,1.1-2.08,1.98-3.55,2.64
		c-1.47,0.67-3.13,1-4.97,1c-1.84,0-3.5-0.33-4.97-1c-1.47-0.67-2.66-1.55-3.55-2.64c-0.89-1.1-1.58-2.29-2.06-3.57
		c-0.48-1.28-0.72-2.59-0.72-3.93v-0.04c0-1.31,0.24-2.61,0.72-3.89c0.48-1.28,1.17-2.47,2.06-3.57c0.89-1.1,2.08-1.98,3.55-2.64
		c1.47-0.67,3.13-1,4.97-1c1.84,0,3.5,0.33,4.97,1c1.47,0.67,2.66,1.55,3.55,2.64c0.89,1.1,1.58,2.29,2.06,3.57
		c0.48,1.29,0.72,2.59,0.72,3.93S288.11,377.34,287.63,378.62z M289.73,339.86h-6.27v-11.45c0-1.36-0.23-2.42-0.68-3.19
		c-0.45-0.77-1.32-1.15-2.61-1.15c-1.41,0-2.36,0.4-2.85,1.21c-0.49,0.81-0.74,1.86-0.74,3.17v11.41h-6.27v-20.97h5.86v2.23
		c0.28-0.38,0.52-0.69,0.72-0.93c0.2-0.24,0.54-0.54,1-0.91c0.47-0.36,1.04-0.64,1.72-0.83c0.68-0.19,1.46-0.28,2.34-0.28
		c1.33,0,2.51,0.21,3.51,0.64c1.01,0.43,1.78,0.94,2.3,1.55s0.95,1.33,1.27,2.17c0.31,0.84,0.51,1.58,0.59,2.21
		c0.08,0.63,0.11,1.3,0.11,2V339.86z M311.79,382.72c-1.93,2.13-4.36,3.19-7.31,3.19c-2.54,0-4.65-0.87-6.31-2.61v1.89v6.99h-6.27
		v-27.96h5.89v2.3c1.74-2.01,3.95-3.02,6.65-3.02c1.76,0,3.33,0.36,4.7,1.08c1.37,0.72,2.45,1.66,3.23,2.81
		c0.78,1.16,1.36,2.38,1.74,3.67c0.38,1.28,0.57,2.57,0.57,3.85C314.68,377.99,313.72,380.59,311.79,382.72z M338.98,376.88h-15.6
		c0.13,1.11,0.65,2,1.57,2.68c0.92,0.68,2.01,1.02,3.27,1.02c1.64,0,2.91-0.65,3.82-1.96h6.42c-1.01,2.32-2.43,4.11-4.27,5.37
		c-1.76,1.26-3.75,1.89-5.97,1.89c-3.02,0-5.63-1.08-7.82-3.23c-2.19-2.15-3.29-4.78-3.29-7.88c0-3,1.05-5.62,3.15-7.88
		c2.1-2.25,4.72-3.38,7.84-3.38c3.2,0,5.84,1.11,7.93,3.32C338.5,369.48,339.48,372.83,338.98,376.88z M340.09,339.86h-6.27v-2.27
		c-0.53,0.98-1.37,1.73-2.51,2.23c-1.15,0.5-2.37,0.76-3.68,0.76c-3.2,0-5.76-1.09-7.67-3.27c-1.92-2.18-2.87-4.83-2.87-7.95
		c0-3.32,1.03-6.02,3.1-8.09c2.06-2.06,4.55-3.1,7.44-3.1c1.56,0,2.86,0.3,3.89,0.89c1.03,0.59,1.8,1.28,2.3,2.06v-2.23h6.27V339.86
		z M353.83,369.82h-0.23c-1.64,0-2.83,0.32-3.59,0.96c-0.75,0.64-1.13,1.69-1.13,3.15v11.26h-6.27v-20.97h5.89v2.34
		c0.2-0.4,0.4-0.73,0.6-0.98c0.2-0.25,0.5-0.57,0.91-0.94c0.4-0.38,0.93-0.66,1.57-0.85s1.39-0.28,2.25-0.28V369.82z M364.08,339.86
		h-6.27v-11.45c0-1.36-0.23-2.42-0.68-3.19c-0.45-0.77-1.32-1.15-2.61-1.15c-1.41,0-2.36,0.4-2.85,1.21
		c-0.49,0.81-0.74,1.86-0.74,3.17v11.41h-6.27v-20.97h5.86v2.23c0.28-0.38,0.52-0.69,0.72-0.93c0.2-0.24,0.54-0.54,1-0.91
		c0.47-0.36,1.04-0.64,1.72-0.83c0.68-0.19,1.46-0.28,2.34-0.28c1.33,0,2.51,0.21,3.51,0.64c1.01,0.43,1.78,0.94,2.3,1.55
		s0.95,1.33,1.27,2.17c0.31,0.84,0.51,1.58,0.59,2.21c0.08,0.63,0.11,1.3,0.11,2V339.86z"/>
	<path class="st0" d="M328.53,324.03c-1.66,0-2.94,0.56-3.83,1.68c-0.89,1.12-1.34,2.36-1.34,3.72v0.04c0,1.21,0.45,2.39,1.34,3.53
		c0.89,1.15,2.18,1.72,3.87,1.72c1.96,0,3.43-0.78,4.38-2.34c0.5-0.78,0.79-1.67,0.87-2.68c0.08-0.93-0.1-1.85-0.53-2.76
		C332.38,325,330.8,324.03,328.53,324.03z"/>
</g>
</svg>
